<svg id="Layer_1" data-name="Layer 1" xmlns="http://www.w3.org/2000/svg" viewBox="0 0 155.16 144">
    <defs>
        <style>
            .cls-1{fill:#1eadff;}
        </style>
    </defs>
    
    <title>linkedin</title>

    <path class="cls-1" d="M133.34,0H10.63A10.51,10.51,0,0,0,0,10.38V133.61A10.52,10.52,0,0,0,10.63,144H133.34A10.54,10.54,0,0,0,144,133.61V10.38A10.53,10.53,0,0,0,133.34,0ZM42.71,122.71H21.35V54H42.71ZM32,44.59A12.38,12.38,0,1,1,44.41,32.2,12.39,12.39,0,0,1,32,44.59Zm90.67,78.12H101.36V89.29c0-8-.15-18.22-11.1-18.22-11.11,0-12.82,8.68-12.82,17.65v34H56.1V54H76.59v9.39h.28c2.85-5.4,9.82-11.1,20.21-11.1,21.63,0,25.62,14.23,25.62,32.74Z"/>
    <path class="cls-1" d="M151.94,120a1,1,0,0,0,1-1.09c0-.77-.46-1.14-1.42-1.14H150v4h.58V120h.71l0,0,1.11,1.74h.62l-1.19-1.8Zm-.67-.41h-.67v-1.37h.85c.44,0,.95.07.95.65S151.89,119.58,151.27,119.58Z"/>
    <path class="cls-1" d="M151.34,116a3.82,3.82,0,1,0,3.83,3.82A3.79,3.79,0,0,0,151.34,116Zm0,7.15a3.32,3.32,0,1,1,3.26-3.32A3.25,3.25,0,0,1,151.34,123.11Z"/>

</svg>
